<?xml version="1.0" encoding="UTF-8"?>
<svg xmlns="http://www.w3.org/2000/svg" viewBox="0 0 1000 1000">
  <defs>
    <style>
      .cls-1 {
        fill: #c2e4e4;
      }

      .cls-2 {
        fill: #231f20;
      }
    </style>
  </defs>
  <rect class="cls-1" width="1000" height="1000" rx="80" ry="80"/>
  <path class="cls-2" d="M655.75,215.33c132.91,0,240.43,107.52,240.43,240.43s-107.52,240.43-240.43,240.43c-47.45,0-91.34-13.93-128.63-37.58l-173.68,173.68-60.07-60.07,171.51-171c-30.83-40.41-49.48-90.54-49.48-145.39-.07-132.98,107.45-240.5,240.36-240.5ZM655.75,271.92c-101.79,0-183.84,82.05-183.84,183.84s82.05,183.84,183.84,183.84,183.84-82.05,183.84-183.84-82.05-183.84-183.84-183.84Z"/>
  <path class="cls-2" d="M725.84,325.24v48.46c-19.88-11.9-41.06-17.85-63.55-17.85-12.48,0-22.2,2.76-29.16,8.34-7.04,5.59-10.52,12.7-10.52,21.47s3.77,15.96,11.32,21.62c7.55,5.73,18.86,11.97,33.95,18.86,10.59,4.79,19.23,8.92,25.83,12.48,6.6,3.55,13.86,8.56,21.62,14.87,7.84,6.38,13.64,14,17.48,22.85,3.85,8.85,5.73,19.01,5.73,30.4,0,23.8-8.56,42.8-25.61,57.02-17.05,14.15-39.54,21.26-67.33,21.26-30.18,0-55.21-5.66-75.09-17.05v-51.22c22.78,16.4,47.67,24.59,74.65,24.59,12.19,0,21.98-2.97,29.38-8.92,7.4-5.95,11.1-13.93,11.1-24.01,0-4.79-.94-9-2.76-12.7-1.89-3.7-5.66-7.4-11.32-11.1-5.73-3.7-10.08-6.38-13.13-7.91-3.05-1.6-9.36-4.5-18.86-8.71-2.68-1.31-4.64-2.25-5.95-2.76-9.79-4.5-17.77-8.56-23.8-12.12-6.09-3.55-12.7-8.42-19.88-14.51-7.18-6.09-12.48-13.35-16.11-21.84-3.55-8.49-5.37-18.14-5.37-29.02,0-22.78,8.42-41.06,25.25-54.78,16.83-13.78,39.1-20.68,66.89-20.68,25.17,0,46.87,4.35,65.15,13.13l.07-.22Z"/>
  <path class="cls-2" d="M366.93,281.06v67.11c-27.5-16.47-56.81-24.74-88-24.74-17.27,0-30.69,3.85-40.41,11.54-9.72,7.69-14.58,17.63-14.58,29.67s5.22,22.13,15.67,29.96c10.45,7.91,26.12,16.61,47.01,26.12,14.66,6.6,26.55,12.41,35.77,17.34,9.14,4.93,19.15,11.83,29.96,20.6,10.81,8.78,18.86,19.37,24.23,31.63,5.3,12.26,7.98,26.34,7.98,42.08,0,33.01-11.83,59.35-35.48,78.93-23.65,19.59-54.7,29.46-93.23,29.46-41.79,0-76.47-7.91-103.96-23.65v-70.95c31.56,22.71,66.02,34.1,103.38,34.1,16.9,0,30.47-4.14,40.7-12.41s15.38-19.37,15.38-33.3c0-6.6-1.31-12.48-3.85-17.63s-7.76-10.23-15.67-15.38c-7.91-5.15-13.93-8.78-18.14-11.03-4.21-2.18-12.91-6.24-26.12-12.12-3.63-1.81-6.38-3.12-8.27-3.85-13.57-6.24-24.59-11.83-33.01-16.76-8.42-4.93-17.63-11.61-27.5-20.1-9.94-8.42-17.34-18.5-22.27-30.25-4.93-11.75-7.4-25.1-7.4-40.19,0-31.56,11.61-56.81,34.97-75.89,23.29-19.08,54.19-28.58,92.72-28.58,34.82,0,64.93,6.02,90.25,18.14l-.15.15Z"/>
  <path class="cls-2" d="M655.75,215.33c132.91,0,240.43,107.52,240.43,240.43s-107.52,240.43-240.43,240.43c-47.45,0-91.34-13.93-128.63-37.58l-173.68,173.68-60.07-60.07,171.51-171c-30.83-40.41-49.48-90.54-49.48-145.39-.07-132.98,107.45-240.5,240.36-240.5ZM655.75,271.92c-101.79,0-183.84,82.05-183.84,183.84s82.05,183.84,183.84,183.84,183.84-82.05,183.84-183.84-82.05-183.84-183.84-183.84Z"/>
  <path class="cls-2" d="M725.84,325.24v48.46c-19.88-11.9-41.06-17.85-63.55-17.85-12.48,0-22.2,2.76-29.16,8.34-7.04,5.59-10.52,12.7-10.52,21.47s3.77,15.96,11.32,21.62c7.55,5.73,18.86,11.97,33.95,18.86,10.59,4.79,19.23,8.92,25.83,12.48,6.6,3.55,13.86,8.56,21.62,14.87,7.84,6.38,13.64,14,17.48,22.85,3.85,8.85,5.73,19.01,5.73,30.4,0,23.8-8.56,42.8-25.61,57.02-17.05,14.15-39.54,21.26-67.33,21.26-30.18,0-55.21-5.66-75.09-17.05v-51.22c22.78,16.4,47.67,24.59,74.65,24.59,12.19,0,21.98-2.97,29.38-8.92,7.4-5.95,11.1-13.93,11.1-24.01,0-4.79-.94-9-2.76-12.7-1.89-3.7-5.66-7.4-11.32-11.1-5.73-3.7-10.08-6.38-13.13-7.91-3.05-1.6-9.36-4.5-18.86-8.71-2.68-1.31-4.64-2.25-5.95-2.76-9.79-4.5-17.77-8.56-23.8-12.12-6.09-3.55-12.7-8.42-19.88-14.51-7.18-6.09-12.48-13.35-16.11-21.84-3.55-8.49-5.37-18.14-5.37-29.02,0-22.78,8.42-41.06,25.25-54.78,16.83-13.78,39.1-20.68,66.89-20.68,25.17,0,46.87,4.35,65.15,13.13l.07-.22Z"/>
  <path class="cls-2" d="M366.93,281.06v67.11c-27.5-16.47-56.81-24.74-88-24.74-17.27,0-30.69,3.85-40.41,11.54-9.72,7.69-14.58,17.63-14.58,29.67s5.22,22.13,15.67,29.96c10.45,7.91,26.12,16.61,47.01,26.12,14.66,6.6,26.55,12.41,35.77,17.34,9.14,4.93,19.15,11.83,29.96,20.6,10.81,8.78,18.86,19.37,24.23,31.63,5.3,12.26,7.98,26.34,7.98,42.08,0,33.01-11.83,59.35-35.48,78.93-23.65,19.59-54.7,29.46-93.23,29.46-41.79,0-76.47-7.91-103.96-23.65v-70.95c31.56,22.71,66.02,34.1,103.38,34.1,16.9,0,30.47-4.14,40.7-12.41s15.38-19.37,15.38-33.3c0-6.6-1.31-12.48-3.85-17.63s-7.76-10.23-15.67-15.38c-7.91-5.15-13.93-8.78-18.14-11.03-4.21-2.18-12.91-6.24-26.12-12.12-3.63-1.81-6.38-3.12-8.27-3.85-13.57-6.24-24.59-11.83-33.01-16.76-8.42-4.93-17.63-11.61-27.5-20.1-9.94-8.42-17.34-18.5-22.27-30.25-4.93-11.75-7.4-25.1-7.4-40.19,0-31.56,11.61-56.81,34.97-75.89,23.29-19.08,54.19-28.58,92.72-28.58,34.82,0,64.93,6.02,90.25,18.14l-.15.15Z"/>
</svg>